<mxfile host="app.diagrams.net" modified="2022-08-29T09:06:44.029Z" agent="5.0 (Windows NT 10.0; Win64; x64) AppleWebKit/537.36 (KHTML, like Gecko) Chrome/103.0.0.0 Safari/537.36" etag="rMQbIZ3IBkrmnnZYHWP_" version="20.2.7" type="github">
  <diagram id="I3v-WavY5lM3qIA2kUrr" name="第 1 页">
    <mxGraphModel dx="912" dy="818" grid="1" gridSize="10" guides="1" tooltips="1" connect="1" arrows="1" fold="1" page="1" pageScale="1" pageWidth="827" pageHeight="1169" math="0" shadow="0">
      <root>
        <mxCell id="0" />
        <mxCell id="1" parent="0" />
        <mxCell id="VGngwYuoQ34Kih8MQLb0-2" value="&lt;font style=&quot;font-size: 24px;&quot;&gt;1&lt;/font&gt;" style="ellipse;whiteSpace=wrap;html=1;aspect=fixed;" vertex="1" parent="1">
          <mxGeometry x="110" y="70" width="80" height="80" as="geometry" />
        </mxCell>
        <mxCell id="VGngwYuoQ34Kih8MQLb0-9" style="rounded=0;orthogonalLoop=1;jettySize=auto;html=1;fontSize=24;" edge="1" parent="1" source="VGngwYuoQ34Kih8MQLb0-3" target="VGngwYuoQ34Kih8MQLb0-2">
          <mxGeometry relative="1" as="geometry" />
        </mxCell>
        <mxCell id="VGngwYuoQ34Kih8MQLb0-3" value="&lt;font style=&quot;font-size: 24px;&quot;&gt;2&lt;/font&gt;" style="ellipse;whiteSpace=wrap;html=1;aspect=fixed;" vertex="1" parent="1">
          <mxGeometry x="320" y="70" width="80" height="80" as="geometry" />
        </mxCell>
        <mxCell id="VGngwYuoQ34Kih8MQLb0-10" style="edgeStyle=none;rounded=0;orthogonalLoop=1;jettySize=auto;html=1;fontSize=24;" edge="1" parent="1" source="VGngwYuoQ34Kih8MQLb0-4" target="VGngwYuoQ34Kih8MQLb0-3">
          <mxGeometry relative="1" as="geometry" />
        </mxCell>
        <mxCell id="VGngwYuoQ34Kih8MQLb0-11" style="edgeStyle=none;rounded=0;orthogonalLoop=1;jettySize=auto;html=1;fontSize=24;" edge="1" parent="1" source="VGngwYuoQ34Kih8MQLb0-4" target="VGngwYuoQ34Kih8MQLb0-7">
          <mxGeometry relative="1" as="geometry" />
        </mxCell>
        <mxCell id="VGngwYuoQ34Kih8MQLb0-4" value="&lt;font style=&quot;font-size: 24px;&quot;&gt;3&lt;/font&gt;" style="ellipse;whiteSpace=wrap;html=1;aspect=fixed;" vertex="1" parent="1">
          <mxGeometry x="540" y="70" width="80" height="80" as="geometry" />
        </mxCell>
        <mxCell id="VGngwYuoQ34Kih8MQLb0-12" style="edgeStyle=none;rounded=0;orthogonalLoop=1;jettySize=auto;html=1;fontSize=24;" edge="1" parent="1" source="VGngwYuoQ34Kih8MQLb0-5" target="VGngwYuoQ34Kih8MQLb0-4">
          <mxGeometry relative="1" as="geometry" />
        </mxCell>
        <mxCell id="VGngwYuoQ34Kih8MQLb0-13" style="edgeStyle=none;rounded=0;orthogonalLoop=1;jettySize=auto;html=1;fontSize=24;" edge="1" parent="1" source="VGngwYuoQ34Kih8MQLb0-5" target="VGngwYuoQ34Kih8MQLb0-6">
          <mxGeometry relative="1" as="geometry" />
        </mxCell>
        <mxCell id="VGngwYuoQ34Kih8MQLb0-14" style="edgeStyle=none;rounded=0;orthogonalLoop=1;jettySize=auto;html=1;fontSize=24;" edge="1" parent="1" source="VGngwYuoQ34Kih8MQLb0-5" target="VGngwYuoQ34Kih8MQLb0-7">
          <mxGeometry relative="1" as="geometry" />
        </mxCell>
        <mxCell id="VGngwYuoQ34Kih8MQLb0-5" value="&lt;font style=&quot;font-size: 24px;&quot;&gt;4&lt;/font&gt;" style="ellipse;whiteSpace=wrap;html=1;aspect=fixed;" vertex="1" parent="1">
          <mxGeometry x="540" y="350" width="80" height="80" as="geometry" />
        </mxCell>
        <mxCell id="VGngwYuoQ34Kih8MQLb0-15" style="edgeStyle=none;rounded=0;orthogonalLoop=1;jettySize=auto;html=1;fontSize=24;" edge="1" parent="1" source="VGngwYuoQ34Kih8MQLb0-6" target="VGngwYuoQ34Kih8MQLb0-2">
          <mxGeometry relative="1" as="geometry" />
        </mxCell>
        <mxCell id="VGngwYuoQ34Kih8MQLb0-16" style="edgeStyle=none;rounded=0;orthogonalLoop=1;jettySize=auto;html=1;fontSize=24;" edge="1" parent="1" source="VGngwYuoQ34Kih8MQLb0-6" target="VGngwYuoQ34Kih8MQLb0-8">
          <mxGeometry relative="1" as="geometry" />
        </mxCell>
        <mxCell id="VGngwYuoQ34Kih8MQLb0-6" value="&lt;font style=&quot;font-size: 24px;&quot;&gt;5&lt;/font&gt;" style="ellipse;whiteSpace=wrap;html=1;aspect=fixed;" vertex="1" parent="1">
          <mxGeometry x="110" y="350" width="80" height="80" as="geometry" />
        </mxCell>
        <mxCell id="VGngwYuoQ34Kih8MQLb0-17" style="edgeStyle=none;rounded=0;orthogonalLoop=1;jettySize=auto;html=1;fontSize=24;" edge="1" parent="1" source="VGngwYuoQ34Kih8MQLb0-7" target="VGngwYuoQ34Kih8MQLb0-2">
          <mxGeometry relative="1" as="geometry" />
        </mxCell>
        <mxCell id="VGngwYuoQ34Kih8MQLb0-18" style="edgeStyle=none;rounded=0;orthogonalLoop=1;jettySize=auto;html=1;fontSize=24;" edge="1" parent="1" source="VGngwYuoQ34Kih8MQLb0-7" target="VGngwYuoQ34Kih8MQLb0-3">
          <mxGeometry relative="1" as="geometry" />
        </mxCell>
        <mxCell id="VGngwYuoQ34Kih8MQLb0-19" style="edgeStyle=none;rounded=0;orthogonalLoop=1;jettySize=auto;html=1;fontSize=24;" edge="1" parent="1" source="VGngwYuoQ34Kih8MQLb0-7" target="VGngwYuoQ34Kih8MQLb0-6">
          <mxGeometry relative="1" as="geometry" />
        </mxCell>
        <mxCell id="VGngwYuoQ34Kih8MQLb0-7" value="&lt;font style=&quot;font-size: 24px;&quot;&gt;6&lt;/font&gt;" style="ellipse;whiteSpace=wrap;html=1;aspect=fixed;" vertex="1" parent="1">
          <mxGeometry x="320" y="210" width="80" height="80" as="geometry" />
        </mxCell>
        <mxCell id="VGngwYuoQ34Kih8MQLb0-8" value="&lt;font style=&quot;font-size: 24px;&quot;&gt;7&lt;/font&gt;" style="ellipse;whiteSpace=wrap;html=1;aspect=fixed;" vertex="1" parent="1">
          <mxGeometry x="110" y="505" width="80" height="80" as="geometry" />
        </mxCell>
        <mxCell id="VGngwYuoQ34Kih8MQLb0-20" value="4 3 6 2 5 1 7" style="text;html=1;align=center;verticalAlign=middle;resizable=0;points=[];autosize=1;strokeColor=none;fillColor=none;fontSize=24;" vertex="1" parent="1">
          <mxGeometry x="140" y="620" width="160" height="40" as="geometry" />
        </mxCell>
      </root>
    </mxGraphModel>
  </diagram>
</mxfile>
